# xmcd CD database file
#
# Track frame offsets:
#	150
#	12777
#	26323
#	39643
#	54590
#	70099
#	82998
#	96321
#	114713
#	129376
#	143040
#
# Disc length: 2254 seconds
#
# Revision: 2
# Processed by: cddbd v1.5.2PL0 Copyright (c) Steve Scherf et al.
# Submitted via: CDex 2.11
#
DISCID=8908cc0b
DTITLE=Johnny Cash - Water From The Wells Of Home (Rerelease)
DYEAR=2003
DGENRE=Country
TTITLE0=Ballad Of A Teenage Queen  (With Rosanne Cash and The Everly Brothers)
TTITLE1=As Long As I Live  (With Emmylou Harris)
TTITLE2=Where Did We Go Right  (With June Carter and The Carter Family)
TTITLE3=The Last Of The Drifters  (With Tom T. Hall)
TTITLE4=Call Me The Breeze  (With John Carter Cash)
TTITLE5=That Old Wheel  (With Hank Williams Jr)
TTITLE6=Sweeter Than The Flowers  (With Waylon Jennings)
TTITLE7=A Croft In Clachan (The Ballad Of Rob MacDunn)  (With Glen Campbell)
TTITLE8=New Moon Over Jamaica  (With Paul McCartney)
TTITLE9=Water From The Wells Of Home  (With John Carter Cash)
TTITLE10=Interview: Johnny Cash Talks About 'Water From The Wells Of Home'
EXTD=Originally released as:\n(c)1988 Polygram Records Inc USA, upc 0422 83477827\n\nRe-Release 2003 on Mercury Records/UMG Recordings, USA\nupc 008817032122\n\n YEAR: 2003
EXTT0=
EXTT1=
EXTT2=
EXTT3=
EXTT4=
EXTT5=
EXTT6=
EXTT7=
EXTT8=
EXTT9=
EXTT10=
PLAYORDER=
